<?xml version="1.0" standalone="no"?>
<!DOCTYPE svg PUBLIC "-//W3C//DTD SVG 20010904//EN"
 "http://www.w3.org/TR/2001/REC-SVG-20010904/DTD/svg10.dtd">
<svg version="1.0" xmlns="http://www.w3.org/2000/svg"
 width="580.000000pt" height="387.000000pt" viewBox="0 0 580.000000 387.000000"
 preserveAspectRatio="xMidYMid meet">

<g transform="translate(0.000000,387.000000) scale(0.100000,-0.100000)"
fill="#000000" stroke="none">
<path d="M0 1935 l0 -1935 2900 0 2900 0 0 1935 0 1935 -2900 0 -2900 0 0
-1935z m3008 973 c17 -17 17 -244 0 -255 -7 -4 -137 -10 -288 -13 l-275 -5 -3
-214 c-2 -165 1 -216 10 -223 7 -4 95 -8 196 -8 100 0 182 -4 182 -8 0 -5 -31
-61 -70 -126 -38 -65 -70 -122 -70 -127 0 -5 -49 -9 -109 -9 -60 0 -116 -3
-125 -6 -14 -5 -16 -33 -16 -210 l0 -203 -141 -246 c-78 -135 -143 -244 -146
-242 -2 2 24 66 57 143 l60 139 -62 3 c-34 2 -68 8 -75 14 -18 15 -19 1578 -1
1596 17 17 859 17 876 0z m294 -45 c-13 -25 -122 -282 -122 -288 0 -3 107 -5
238 -5 172 0 241 -3 250 -12 8 -8 12 -51 12 -130 0 -106 -2 -118 -19 -128 -12
-6 -126 -10 -301 -10 l-280 0 2 -187 3 -188 243 -5 c201 -4 244 -8 252 -20 13
-20 13 -220 0 -240 -8 -13 -50 -15 -255 -18 l-245 -3 0 -199 0 -200 281 0
c174 0 288 -4 300 -10 17 -10 19 -22 19 -128 0 -79 -4 -122 -12 -130 -17 -17
-879 -17 -896 0 -9 9 -12 133 -12 496 l0 484 271 469 c150 258 273 469 276
469 2 0 0 -8 -5 -17z"/>
</g>
</svg>
