<?xml version="1.0" standalone="no"?>
<!DOCTYPE svg PUBLIC "-//W3C//DTD SVG 20010904//EN"
 "http://www.w3.org/TR/2001/REC-SVG-20010904/DTD/svg10.dtd">
<svg version="1.0" xmlns="http://www.w3.org/2000/svg"
 width="500.000000pt" height="500.000000pt" viewBox="0 0 500.000000 500.000000"
 preserveAspectRatio="xMidYMid meet">

<g transform="translate(0.000000,500.000000) scale(0.100000,-0.100000)"
fill="#000000" stroke="none">
<path d="M0 2500 l0 -2500 2500 0 2500 0 0 2500 0 2500 -2500 0 -2500 0 0
-2500z m4214 515 c7 -19 -3 -19 -28 0 -19 15 -19 15 1 15 11 0 23 -7 27 -15z
m-117 -13 c-22 -24 -22 -59 1 -70 9 -5 35 -13 57 -17 69 -12 95 -31 95 -69 0
-20 -7 -39 -17 -47 -16 -13 -17 -12 -4 3 32 42 -4 79 -93 94 -69 12 -97 63
-56 104 25 25 39 26 17 2z m-67 -5 c0 -10 -10 -12 -32 -8 l-33 5 30 7 c17 4
31 7 33 8 1 0 2 -5 2 -12z m-115 -128 c17 -110 16 -139 -6 -139 -6 0 -9 7 -6
15 8 19 -22 207 -35 223 -8 9 -5 12 10 12 17 0 22 -12 37 -111z m-95 86 c0
-12 -5 -13 -17 -7 -10 5 -25 12 -33 15 -8 3 0 6 18 6 22 1 32 -4 32 -14z
m-130 -25 c-24 -45 -3 -63 107 -85 54 -11 78 -62 48 -101 -14 -18 -14 -17 -5
9 13 38 -13 62 -84 77 -81 17 -110 60 -73 108 15 19 19 14 7 -8z m-69 -27 c0
-42 22 -168 34 -195 6 -14 2 -18 -18 -18 -20 0 -23 4 -20 23 4 22 -19 176 -32
210 -5 13 -2 17 14 17 18 0 21 -6 22 -37z m-105 9 c35 -23 39 -77 9 -102 -12
-10 -13 -7 -6 17 11 36 -3 71 -31 83 -21 8 -21 9 -3 9 11 0 25 -3 31 -7z
m-103 -113 c9 -62 22 -118 28 -125 9 -11 6 -14 -15 -14 -15 0 -25 4 -22 9 5 7
-17 165 -31 219 -3 15 -1 22 9 22 10 0 19 -30 31 -111z m-99 70 c42 -33 35
-99 -15 -124 -37 -20 -52 -19 -17 1 55 29 44 116 -16 133 -30 9 -30 9 -5 10
15 1 38 -8 53 -20z m689 10 c-8 -8 -22 -8 -50 -1 l-38 10 50 1 c36 1 46 -2 38
-10z m-808 -9 c-7 -11 23 -199 36 -222 5 -11 5 -18 0 -18 -5 0 -16 -3 -24 -6
-11 -4 -14 0 -11 13 7 24 -24 204 -37 219 -7 9 -5 14 8 17 30 8 34 7 28 -3z
m-107 -26 c33 -23 42 -54 26 -86 -8 -16 -19 -28 -25 -28 -8 0 -8 5 0 14 7 8
11 30 9 48 -2 26 -10 37 -38 50 -25 13 -29 18 -15 18 11 0 31 -7 43 -16z m-99
-103 c7 -55 19 -111 26 -125 13 -24 12 -26 -8 -26 -21 0 -23 7 -35 107 -7 58
-17 114 -23 125 -8 14 -6 18 9 18 16 0 20 -13 31 -99z m-74 78 c11 -17 2 -18
-25 -4 -24 14 -24 14 -3 15 12 0 25 -5 28 -11z m1237 -40 c30 -8 29 -8 -11 -5
-40 4 -60 17 -61 40 0 5 9 1 20 -9 10 -9 34 -21 52 -26z m-1368 9 c3 -13 10
-57 16 -98 6 -41 13 -87 16 -102 5 -23 2 -28 -14 -28 -15 0 -18 5 -15 23 6 30
-23 196 -38 213 -9 11 -7 14 10 14 13 0 22 -8 25 -22z m-59 2 c4 -7 -3 -8 -22
-4 -38 9 -42 14 -10 14 14 0 29 -5 32 -10z m-60 -112 c9 -62 22 -119 27 -125
8 -10 4 -13 -15 -13 -17 0 -25 5 -22 13 3 6 -4 63 -13 125 -14 84 -16 112 -7
112 8 0 19 -40 30 -112z m1395 82 c-8 -5 -26 -9 -40 -9 l-25 1 28 10 c15 5 27
15 27 21 0 7 4 7 12 -1 10 -10 10 -15 -2 -22z m-1471 17 c-2 -1 -12 -9 -21
-16 -15 -12 -18 -11 -18 3 0 10 8 16 22 16 12 0 19 -1 17 -3z m942 -51 c30
-27 42 -42 32 -44 -8 -2 -39 20 -69 48 -66 62 -34 59 37 -4z m-1012 7 c0 -35
-1 -36 -10 -14 -5 14 -15 31 -21 38 -8 10 -6 13 11 13 18 0 21 -6 20 -37z
m-60 -83 c50 -55 91 -108 91 -118 0 -12 -11 -6 -37 23 -20 22 -66 72 -104 112
-60 64 -71 83 -48 83 4 0 48 -45 98 -100z m1290 62 c-19 -7 -59 9 -59 23 0 12
5 12 34 -3 19 -9 30 -19 25 -20z m-1432 12 c2 -7 -9 -9 -29 -6 -28 4 -30 6
-13 13 24 9 37 7 42 -7z m-133 -31 c3 -16 10 -59 16 -98 6 -38 13 -82 16 -96
4 -20 1 -28 -15 -32 -14 -3 -18 -1 -14 9 6 16 -15 178 -28 210 -8 21 -3 34 12
34 4 0 10 -12 13 -27z m716 15 c0 -12 -68 -10 -75 2 -4 6 10 9 34 7 23 -1 41
-5 41 -9z m203 -45 c36 -31 50 -49 41 -51 -9 -2 -39 19 -69 47 -68 64 -45 67
28 4z m-1088 16 c12 -18 -1 -20 -31 -4 l-29 15 27 0 c15 0 30 -5 33 -11z
m-119 -21 c-34 -49 -17 -69 74 -89 76 -16 107 -53 77 -92 -11 -16 -12 -14 -12
15 0 34 2 33 -115 69 -59 19 -76 56 -40 94 29 31 36 32 16 3z m-108 -24 c33
-23 52 -67 52 -123 0 -42 -5 -56 -27 -79 -16 -15 -22 -20 -14 -10 8 10 16 42
19 72 5 64 -17 120 -57 141 -15 8 -20 14 -11 15 9 0 26 -7 38 -16z m-104 -111
c10 -65 22 -121 28 -124 5 -4 -2 -9 -17 -11 -19 -4 -25 -2 -21 8 5 12 -17 166
-31 222 -3 15 -1 22 9 22 11 0 19 -30 32 -117z m-92 77 l-4 -30 -18 23 c-17
20 -17 23 -2 29 27 11 29 9 24 -22z m686 20 c23 -1 24 -2 10 -11 -20 -11 -68
-2 -68 13 0 6 7 7 16 4 9 -3 28 -6 42 -6z m670 -34 c-1 -2 -19 -6 -38 -9 l-35
-6 33 16 c17 9 33 21 33 27 1 6 3 3 6 -7 3 -10 3 -20 1 -21z m-1473 -18 c15
-18 54 -61 87 -96 32 -35 58 -70 56 -79 -2 -10 -35 20 -95 85 -50 55 -93 98
-96 96 -2 -3 -7 2 -10 11 -11 28 30 16 58 -17z m-85 12 c0 -6 -11 -8 -27 -4
-40 10 -41 14 -5 14 18 0 32 -5 32 -10z m-122 -97 c7 -49 16 -105 19 -125 5
-33 3 -38 -15 -38 -15 0 -19 5 -15 21 9 31 -18 199 -34 215 -12 12 -11 14 9
14 22 0 25 -6 36 -87z m-88 45 c0 -38 26 -194 35 -208 3 -6 -2 -10 -12 -10
-16 0 -21 14 -32 103 -7 56 -19 112 -27 125 -14 21 -13 22 11 22 22 0 25 -4
25 -32z m1227 -9 c12 -15 11 -17 -9 -21 -22 -4 -23 -2 -19 31 2 20 6 29 9 21
2 -8 11 -22 19 -31z m-1324 9 c26 -21 31 -61 9 -88 l-18 -23 0 49 c1 42 -2 50
-24 61 -23 11 -23 13 -4 13 11 0 28 -6 37 -12z m-110 -110 c10 -61 22 -117 28
-125 9 -10 6 -13 -15 -13 -15 0 -25 4 -22 9 7 11 -24 203 -35 217 -10 12 -2
24 16 24 7 0 18 -43 28 -112z m-73 89 c0 -10 -10 -12 -32 -9 -28 4 -30 6 -13
13 30 12 45 10 45 -4z m1449 -11 c-2 -2 -20 -7 -39 -11 l-35 -6 35 18 c19 10
37 14 39 10 1 -5 1 -10 0 -11z m-1570 -93 c7 -54 19 -110 26 -125 13 -27 12
-28 -11 -28 -21 0 -24 5 -25 38 0 30 -18 145 -29 187 -4 17 0 25 13 25 9 0 17
-31 26 -97z m595 65 c-7 -10 -53 -9 -79 2 -14 6 -6 9 32 8 29 -1 50 -5 47 -10z
m574 -36 c-17 -7 -58 9 -58 22 0 11 7 10 34 -3 18 -9 29 -18 24 -19z m-469
-57 c15 -9 4 -25 -18 -25 -14 0 -16 7 -13 37 4 32 6 35 13 16 4 -11 12 -24 18
-28z m-616 25 c18 -1 19 -2 7 -9 -19 -11 -72 -2 -64 11 3 5 13 7 21 4 8 -3 24
-6 36 -6z m228 -54 c30 -27 42 -42 32 -44 -8 -2 -39 20 -69 48 -66 62 -34 59
37 -4z m329 14 c0 -15 -6 -20 -27 -19 -28 0 -28 1 -5 11 12 6 22 15 22 20 0 4
2 8 5 8 3 0 5 -9 5 -20z"/>
</g>
</svg>
